<svg id="my-svg" width="100%" xmlns="http://www.w3.org/2000/svg" xmlns:xlink="http://www.w3.org/1999/xlink" class="erDiagram" style="max-width: 447.703px; background-color: white;" viewBox="0 0 447.703125 501.75" role="graphics-document document" aria-roledescription="er"><style>#my-svg{font-family:"trebuchet ms",verdana,arial,sans-serif;font-size:16px;fill:#333;}@keyframes edge-animation-frame{from{stroke-dashoffset:0;}}@keyframes dash{to{stroke-dashoffset:0;}}#my-svg .edge-animation-slow{stroke-dasharray:9,5!important;stroke-dashoffset:900;animation:dash 50s linear infinite;stroke-linecap:round;}#my-svg .edge-animation-fast{stroke-dasharray:9,5!important;stroke-dashoffset:900;animation:dash 20s linear infinite;stroke-linecap:round;}#my-svg .error-icon{fill:#552222;}#my-svg .error-text{fill:#552222;stroke:#552222;}#my-svg .edge-thickness-normal{stroke-width:1px;}#my-svg .edge-thickness-thick{stroke-width:3.5px;}#my-svg .edge-pattern-solid{stroke-dasharray:0;}#my-svg .edge-thickness-invisible{stroke-width:0;fill:none;}#my-svg .edge-pattern-dashed{stroke-dasharray:3;}#my-svg .edge-pattern-dotted{stroke-dasharray:2;}#my-svg .marker{fill:#333333;stroke:#333333;}#my-svg .marker.cross{stroke:#333333;}#my-svg svg{font-family:"trebuchet ms",verdana,arial,sans-serif;font-size:16px;}#my-svg p{margin:0;}#my-svg .entityBox{fill:#ECECFF;stroke:#9370DB;}#my-svg .relationshipLabelBox{fill:hsl(80, 100%, 96.2745098039%);opacity:0.7;background-color:hsl(80, 100%, 96.2745098039%);}#my-svg .relationshipLabelBox rect{opacity:0.5;}#my-svg .labelBkg{background-color:rgba(248.6666666666, 255, 235.9999999999, 0.5);}#my-svg .edgeLabel{background-color:rgba(232,232,232, 0.8);}#my-svg .edgeLabel .label rect{fill:rgba(232,232,232, 0.8);}#my-svg .edgeLabel .label text{fill:#333;}#my-svg .edgeLabel .label{fill:#9370DB;font-size:14px;}#my-svg .label{font-family:"trebuchet ms",verdana,arial,sans-serif;color:#333;}#my-svg .edge-pattern-dashed{stroke-dasharray:8,8;}#my-svg .node rect,#my-svg .node circle,#my-svg .node ellipse,#my-svg .node polygon{fill:#ECECFF;stroke:#9370DB;stroke-width:1px;}#my-svg .relationshipLine{stroke:#333333;stroke-width:1px;fill:none;}#my-svg .marker{fill:none!important;stroke:#333333!important;stroke-width:1;}#my-svg [data-look=neo].labelBkg{background-color:rgba(248.6666666666, 255, 235.9999999999, 0.5);}#my-svg .node .neo-node{stroke:#9370DB;}#my-svg [data-look="neo"].node rect,#my-svg [data-look="neo"].cluster rect,#my-svg [data-look="neo"].node polygon{stroke:#9370DB;filter:drop-shadow(1px 2px 2px rgba(185, 185, 185, 1));}#my-svg [data-look="neo"].node path{stroke:#9370DB;stroke-width:1px;}#my-svg [data-look="neo"].node .outer-path{filter:drop-shadow(1px 2px 2px rgba(185, 185, 185, 1));}#my-svg [data-look="neo"].node .neo-line path{stroke:#9370DB;filter:none;}#my-svg [data-look="neo"].node circle{stroke:#9370DB;filter:drop-shadow(1px 2px 2px rgba(185, 185, 185, 1));}#my-svg [data-look="neo"].node circle .state-start{fill:#000000;}#my-svg [data-look="neo"].icon-shape .icon{fill:#9370DB;filter:drop-shadow(1px 2px 2px rgba(185, 185, 185, 1));}#my-svg [data-look="neo"].icon-shape .icon-neo path{stroke:#9370DB;filter:drop-shadow(1px 2px 2px rgba(185, 185, 185, 1));}#my-svg :root{--mermaid-font-family:"trebuchet ms",verdana,arial,sans-serif;}</style><g><defs><marker id="my-svg_er-onlyOneStart" class="marker onlyOne er" refX="0" refY="9" markerWidth="18" markerHeight="18" orient="auto"><path d="M9,0 L9,18 M15,0 L15,18"/></marker></defs><defs><marker id="my-svg_er-onlyOneEnd" class="marker onlyOne er" refX="18" refY="9" markerWidth="18" markerHeight="18" orient="auto"><path d="M3,0 L3,18 M9,0 L9,18"/></marker></defs><defs><marker id="my-svg_er-zeroOrOneStart" class="marker zeroOrOne er" refX="0" refY="9" markerWidth="30" markerHeight="18" orient="auto"><circle fill="white" cx="21" cy="9" r="6"/><path d="M9,0 L9,18"/></marker></defs><defs><marker id="my-svg_er-zeroOrOneEnd" class="marker zeroOrOne er" refX="30" refY="9" markerWidth="30" markerHeight="18" orient="auto"><circle fill="white" cx="9" cy="9" r="6"/><path d="M21,0 L21,18"/></marker></defs><defs><marker id="my-svg_er-oneOrMoreStart" class="marker oneOrMore er" refX="18" refY="18" markerWidth="45" markerHeight="36" orient="auto"><path d="M0,18 Q 18,0 36,18 Q 18,36 0,18 M42,9 L42,27"/></marker></defs><defs><marker id="my-svg_er-oneOrMoreEnd" class="marker oneOrMore er" refX="27" refY="18" markerWidth="45" markerHeight="36" orient="auto"><path d="M3,9 L3,27 M9,18 Q27,0 45,18 Q27,36 9,18"/></marker></defs><defs><marker id="my-svg_er-zeroOrMoreStart" class="marker zeroOrMore er" refX="18" refY="18" markerWidth="57" markerHeight="36" orient="auto"><circle fill="white" cx="48" cy="18" r="6"/><path d="M0,18 Q18,0 36,18 Q18,36 0,18"/></marker></defs><defs><marker id="my-svg_er-zeroOrMoreEnd" class="marker zeroOrMore er" refX="39" refY="18" markerWidth="57" markerHeight="36" orient="auto"><circle fill="white" cx="9" cy="18" r="6"/><path d="M21,18 Q39,0 57,18 Q39,36 21,18"/></marker></defs><g class="root"><g class="clusters"/><g class="edgePaths"><path d="M223.852,179L223.852,187.417C223.852,195.833,223.852,212.667,223.852,229.5C223.852,246.333,223.852,263.167,223.852,271.583L223.852,280" id="my-svg-id_entity-USER-1_entity-TASK-0_0" class="edge-thickness-normal edge-pattern-solid relationshipLine" style="undefined;;;undefined" data-edge="true" data-et="edge" data-id="id_entity-USER-1_entity-TASK-0_0" data-points="W3sieCI6MjIzLjg1MTU2MjUsInkiOjE3OX0seyJ4IjoyMjMuODUxNTYyNSwieSI6MjI5LjV9LHsieCI6MjIzLjg1MTU2MjUsInkiOjI4MH1d" data-look="classic" marker-start="url(#my-svg_er-onlyOneStart)" marker-end="url(#my-svg_er-zeroOrMoreEnd)"/></g><g class="edgeLabels"><g class="edgeLabel" transform="translate(223.8515625, 229.5)"><g class="label" data-id="id_entity-USER-1_entity-TASK-0_0" transform="translate(-11.2890625, -10.5)"><foreignObject width="22.578125" height="21"><div xmlns="http://www.w3.org/1999/xhtml" class="labelBkg" style="display: table-cell; white-space: nowrap; line-height: 1.5; max-width: 200px; text-align: center;"><span class="edgeLabel"><p>has</p></span></div></foreignObject></g></g></g><g class="nodes"><g class="node default" id="my-svg-entity-TASK-0" data-look="classic" transform="translate(223.8515625, 386.875)"><g class="outer-path" style=""><path d="M-215.8515625 -106.875 L215.8515625 -106.875 L215.8515625 106.875 L-215.8515625 106.875" stroke="none" stroke-width="0" fill="#ECECFF"/><path d="M-215.8515625 -106.875 C-57.50533157344998 -106.875, 100.84089935310004 -106.875, 215.8515625 -106.875 M-215.8515625 -106.875 C-56.244799828481234 -106.875, 103.36196284303753 -106.875, 215.8515625 -106.875 M215.8515625 -106.875 C215.8515625 -37.48701059165903, 215.8515625 31.900978816681942, 215.8515625 106.875 M215.8515625 -106.875 C215.8515625 -33.302388083301466, 215.8515625 40.27022383339707, 215.8515625 106.875 M215.8515625 106.875 C79.35829302500852 106.875, -57.13497644998296 106.875, -215.8515625 106.875 M215.8515625 106.875 C72.65418576412654 106.875, -70.54319097174692 106.875, -215.8515625 106.875 M-215.8515625 106.875 C-215.8515625 53.15174270018954, -215.8515625 -0.5715145996209259, -215.8515625 -106.875 M-215.8515625 106.875 C-215.8515625 60.72088752218372, -215.8515625 14.566775044367446, -215.8515625 -106.875" stroke="#9370DB" stroke-width="1.3" fill="none" stroke-dasharray="0 0"/></g><g style="" class="row-rect-odd"><path d="M-215.8515625 -64.125 L215.8515625 -64.125 L215.8515625 -21.375 L-215.8515625 -21.375" stroke="none" stroke-width="0" fill="hsl(240, 100%, 100%)"/><path d="M-215.8515625 -64.125 C-109.8177127319195 -64.125, -3.783862963838999 -64.125, 215.8515625 -64.125 M-215.8515625 -64.125 C-45.515005809820906 -64.125, 124.82155088035819 -64.125, 215.8515625 -64.125 M215.8515625 -64.125 C215.8515625 -50.07465227351763, 215.8515625 -36.02430454703526, 215.8515625 -21.375 M215.8515625 -64.125 C215.8515625 -51.508527548976424, 215.8515625 -38.89205509795285, 215.8515625 -21.375 M215.8515625 -21.375 C58.44428991606455 -21.375, -98.9629826678709 -21.375, -215.8515625 -21.375 M215.8515625 -21.375 C58.589603045896695 -21.375, -98.67235640820661 -21.375, -215.8515625 -21.375 M-215.8515625 -21.375 C-215.8515625 -32.62917544558731, -215.8515625 -43.883350891174615, -215.8515625 -64.125 M-215.8515625 -21.375 C-215.8515625 -33.12303604458643, -215.8515625 -44.871072089172856, -215.8515625 -64.125" stroke="#9370DB" stroke-width="1.3" fill="none" stroke-dasharray="0 0"/></g><g style="" class="row-rect-even"><path d="M-215.8515625 -21.375 L215.8515625 -21.375 L215.8515625 21.375 L-215.8515625 21.375" stroke="none" stroke-width="0" fill="hsl(240, 100%, 97.2745098039%)"/><path d="M-215.8515625 -21.375 C-111.72391714550389 -21.375, -7.59627179100778 -21.375, 215.8515625 -21.375 M-215.8515625 -21.375 C-121.82749575688646 -21.375, -27.803429013772927 -21.375, 215.8515625 -21.375 M215.8515625 -21.375 C215.8515625 -9.480480586668067, 215.8515625 2.414038826663866, 215.8515625 21.375 M215.8515625 -21.375 C215.8515625 -4.445178686772845, 215.8515625 12.48464262645431, 215.8515625 21.375 M215.8515625 21.375 C109.56444840594254 21.375, 3.2773343118850846 21.375, -215.8515625 21.375 M215.8515625 21.375 C71.63200368061032 21.375, -72.58755513877935 21.375, -215.8515625 21.375 M-215.8515625 21.375 C-215.8515625 4.538642855542324, -215.8515625 -12.297714288915351, -215.8515625 -21.375 M-215.8515625 21.375 C-215.8515625 12.394305657113179, -215.8515625 3.413611314226358, -215.8515625 -21.375" stroke="#9370DB" stroke-width="1.3" fill="none" stroke-dasharray="0 0"/></g><g style="" class="row-rect-odd"><path d="M-215.8515625 21.375 L215.8515625 21.375 L215.8515625 64.125 L-215.8515625 64.125" stroke="none" stroke-width="0" fill="hsl(240, 100%, 100%)"/><path d="M-215.8515625 21.375 C-104.96819723063838 21.375, 5.9151680387232375 21.375, 215.8515625 21.375 M-215.8515625 21.375 C-50.10166663551473 21.375, 115.64822922897054 21.375, 215.8515625 21.375 M215.8515625 21.375 C215.8515625 37.57738972553173, 215.8515625 53.77977945106346, 215.8515625 64.125 M215.8515625 21.375 C215.8515625 33.225696845922876, 215.8515625 45.07639369184575, 215.8515625 64.125 M215.8515625 64.125 C128.55838053503538 64.125, 41.265198570070766 64.125, -215.8515625 64.125 M215.8515625 64.125 C48.79511699014762 64.125, -118.26132851970476 64.125, -215.8515625 64.125 M-215.8515625 64.125 C-215.8515625 54.71642322412331, -215.8515625 45.30784644824662, -215.8515625 21.375 M-215.8515625 64.125 C-215.8515625 52.666200045896765, -215.8515625 41.20740009179353, -215.8515625 21.375" stroke="#9370DB" stroke-width="1.3" fill="none" stroke-dasharray="0 0"/></g><g style="" class="row-rect-even"><path d="M-215.8515625 64.125 L215.8515625 64.125 L215.8515625 106.875 L-215.8515625 106.875" stroke="none" stroke-width="0" fill="hsl(240, 100%, 97.2745098039%)"/><path d="M-215.8515625 64.125 C-86.06835400681595 64.125, 43.7148544863681 64.125, 215.8515625 64.125 M-215.8515625 64.125 C-61.93202488476183 64.125, 91.98751273047634 64.125, 215.8515625 64.125 M215.8515625 64.125 C215.8515625 75.63394872302145, 215.8515625 87.1428974460429, 215.8515625 106.875 M215.8515625 64.125 C215.8515625 75.97325119914441, 215.8515625 87.82150239828883, 215.8515625 106.875 M215.8515625 106.875 C88.23481734445596 106.875, -39.381927811088076 106.875, -215.8515625 106.875 M215.8515625 106.875 C74.86912078274975 106.875, -66.1133209345005 106.875, -215.8515625 106.875 M-215.8515625 106.875 C-215.8515625 93.8124438967867, -215.8515625 80.74988779357341, -215.8515625 64.125 M-215.8515625 106.875 C-215.8515625 97.38842877038509, -215.8515625 87.90185754077018, -215.8515625 64.125" stroke="#9370DB" stroke-width="1.3" fill="none" stroke-dasharray="0 0"/></g><g class="label name" transform="translate(-20.3046875, -97.5)" style=""><foreignObject width="40.609375" height="24"><div xmlns="http://www.w3.org/1999/xhtml" style="display: table-cell; white-space: nowrap; line-height: 1.5; max-width: 141px; text-align: start;"><span class="nodeLabel"><p>TASK</p></span></div></foreignObject></g><g class="label attribute-type" transform="translate(-203.3515625, -54.75)" style=""><foreignObject width="49.8125" height="24"><div xmlns="http://www.w3.org/1999/xhtml" style="display: table-cell; white-space: nowrap; line-height: 1.5; max-width: 146px; text-align: start;"><span class="nodeLabel"><p>Integer</p></span></div></foreignObject></g><g class="label attribute-name" transform="translate(-128.5390625, -54.75)" style=""><foreignObject width="42.6875" height="24"><div xmlns="http://www.w3.org/1999/xhtml" style="display: table-cell; white-space: nowrap; line-height: 1.5; max-width: 139px; text-align: start;"><span class="nodeLabel"><p>taskId</p></span></div></foreignObject></g><g class="label attribute-keys" transform="translate(-51.0546875, -54.75)" style=""><foreignObject width="21.34375" height="24"><div xmlns="http://www.w3.org/1999/xhtml" style="display: table-cell; white-space: nowrap; line-height: 1.5; max-width: 121px; text-align: start;"><span class="nodeLabel"><p>PK</p></span></div></foreignObject></g><g class="label attribute-comment" transform="translate(-4.7109375, -54.75)" style=""><foreignObject width="148.171875" height="24"><div xmlns="http://www.w3.org/1999/xhtml" style="display: table-cell; white-space: nowrap; line-height: 1.5; max-width: 248px; text-align: start;"><span class="nodeLabel"><p>AUTO_INCREMENT</p></span></div></foreignObject></g><g class="label attribute-type" transform="translate(-203.3515625, -12)" style=""><foreignObject width="41.796875" height="24"><div xmlns="http://www.w3.org/1999/xhtml" style="display: table-cell; white-space: nowrap; line-height: 1.5; max-width: 139px; text-align: start;"><span class="nodeLabel"><p>String</p></span></div></foreignObject></g><g class="label attribute-name" transform="translate(-128.5390625, -12)" style=""><foreignObject width="24.90625" height="24"><div xmlns="http://www.w3.org/1999/xhtml" style="display: table-cell; white-space: nowrap; line-height: 1.5; max-width: 125px; text-align: start;"><span class="nodeLabel"><p>title</p></span></div></foreignObject></g><g class="label attribute-keys" transform="translate(-51.0546875, -12)" style=""><foreignObject width="0" height="0"><div xmlns="http://www.w3.org/1999/xhtml" style="display: table-cell; white-space: nowrap; line-height: 1.5; max-width: 100px; text-align: start;"><span class="nodeLabel"></span></div></foreignObject></g><g class="label attribute-comment" transform="translate(-4.7109375, -12)" style=""><foreignObject width="78.84375" height="24"><div xmlns="http://www.w3.org/1999/xhtml" style="display: table-cell; white-space: nowrap; line-height: 1.5; max-width: 179px; text-align: start;"><span class="nodeLabel"><p>NOT NULL</p></span></div></foreignObject></g><g class="label attribute-type" transform="translate(-203.3515625, 30.75)" style=""><foreignObject width="41.796875" height="24"><div xmlns="http://www.w3.org/1999/xhtml" style="display: table-cell; white-space: nowrap; line-height: 1.5; max-width: 139px; text-align: start;"><span class="nodeLabel"><p>String</p></span></div></foreignObject></g><g class="label attribute-name" transform="translate(-128.5390625, 30.75)" style=""><foreignObject width="52.484375" height="24"><div xmlns="http://www.w3.org/1999/xhtml" style="display: table-cell; white-space: nowrap; line-height: 1.5; max-width: 148px; text-align: start;"><span class="nodeLabel"><p>content</p></span></div></foreignObject></g><g class="label attribute-keys" transform="translate(-51.0546875, 30.75)" style=""><foreignObject width="0" height="0"><div xmlns="http://www.w3.org/1999/xhtml" style="display: table-cell; white-space: nowrap; line-height: 1.5; max-width: 100px; text-align: start;"><span class="nodeLabel"></span></div></foreignObject></g><g class="label attribute-comment" transform="translate(-4.7109375, 30.75)" style=""><foreignObject width="78.84375" height="24"><div xmlns="http://www.w3.org/1999/xhtml" style="display: table-cell; white-space: nowrap; line-height: 1.5; max-width: 179px; text-align: start;"><span class="nodeLabel"><p>NOT NULL</p></span></div></foreignObject></g><g class="label attribute-type" transform="translate(-203.3515625, 73.5)" style=""><foreignObject width="49.8125" height="24"><div xmlns="http://www.w3.org/1999/xhtml" style="display: table-cell; white-space: nowrap; line-height: 1.5; max-width: 146px; text-align: start;"><span class="nodeLabel"><p>Integer</p></span></div></foreignObject></g><g class="label attribute-name" transform="translate(-128.5390625, 73.5)" style=""><foreignObject width="44.46875" height="24"><div xmlns="http://www.w3.org/1999/xhtml" style="display: table-cell; white-space: nowrap; line-height: 1.5; max-width: 140px; text-align: start;"><span class="nodeLabel"><p>userId</p></span></div></foreignObject></g><g class="label attribute-keys" transform="translate(-51.0546875, 73.5)" style=""><foreignObject width="20.453125" height="24"><div xmlns="http://www.w3.org/1999/xhtml" style="display: table-cell; white-space: nowrap; line-height: 1.5; max-width: 121px; text-align: start;"><span class="nodeLabel"><p>FK</p></span></div></foreignObject></g><g class="label attribute-comment" transform="translate(-4.7109375, 73.5)" style=""><foreignObject width="208.0625" height="24"><div xmlns="http://www.w3.org/1999/xhtml" style="display: table-cell; white-space: nowrap; line-height: 1.5; max-width: 289px; text-align: start;"><span class="nodeLabel"><p>REFERENCES user(user_id)</p></span></div></foreignObject></g><g class="divider"><path d="M-215.8515625 -64.12505 L-215.8515625 -64.12495 L215.8515625 -64.12495 L215.8515625 -64.12505" stroke="none" stroke-width="0" fill="#ECECFF" fill-rule="evenodd"/><path d="M-215.8515625 -64.12505 C-215.8515625 -64.12501616146338, -215.8515625 -64.12498232292674, -215.8515625 -64.12495 M-215.8515625 -64.12505 C-215.8515625 -64.1250131517819, -215.8515625 -64.1249763035638, -215.8515625 -64.12495 M-215.8515625 -64.12495 C-73.50001308300628 -64.12495, 68.85153633398744 -64.12495, 215.8515625 -64.12495 M-215.8515625 -64.12495 C-77.835333714233 -64.12495, 60.180895071533996 -64.12495, 215.8515625 -64.12495 M215.8515625 -64.12495 C215.8515625 -64.1249809127699, 215.8515625 -64.12501182553979, 215.8515625 -64.12505 M215.8515625 -64.12495 C215.8515625 -64.12498435274965, 215.8515625 -64.12501870549931, 215.8515625 -64.12505 M215.8515625 -64.12505 C77.88788217344728 -64.12505, -60.07579815310544 -64.12505, -215.8515625 -64.12505 M215.8515625 -64.12505 C69.89948779741144 -64.12505, -76.05258690517712 -64.12505, -215.8515625 -64.12505" stroke="#9370DB" stroke-width="1.3" fill="none" stroke-dasharray="0 0"/></g><g class="divider"><path d="M-141.0391125 -64.125 L-141.0390125 -64.125 L-141.0390125 106.875 L-141.0391125 106.875" stroke="none" stroke-width="0" fill="#ECECFF" fill-rule="evenodd"/><path d="M-141.0391125 -64.125 C-141.03907698779722 -64.125, -141.03904147559444 -64.125, -141.0390125 -64.125 M-141.0391125 -64.125 C-141.03907912907076 -64.125, -141.03904575814155 -64.125, -141.0390125 -64.125 M-141.0390125 -64.125 C-141.0390125 -2.3076790823723243, -141.0390125 59.50964183525535, -141.0390125 106.875 M-141.0390125 -64.125 C-141.0390125 -5.571688786724749, -141.0390125 52.9816224265505, -141.0390125 106.875 M-141.0390125 106.875 C-141.03903398842988 106.875, -141.03905547685977 106.875, -141.0391125 106.875 M-141.0390125 106.875 C-141.03904888598674 106.875, -141.03908527197345 106.875, -141.0391125 106.875 M-141.0391125 106.875 C-141.0391125 44.082215351163704, -141.0391125 -18.710569297672592, -141.0391125 -64.125 M-141.0391125 106.875 C-141.0391125 49.029953744053536, -141.0391125 -8.815092511892928, -141.0391125 -64.125" stroke="#9370DB" stroke-width="1.3" fill="none" stroke-dasharray="0 0"/></g><g class="divider"><path d="M-63.5547375 -64.125 L-63.5546375 -64.125 L-63.5546375 106.875 L-63.5547375 106.875" stroke="none" stroke-width="0" fill="#ECECFF" fill-rule="evenodd"/><path d="M-63.5547375 -64.125 C-63.55471031065893 -64.125, -63.55468312131786 -64.125, -63.5546375 -64.125 M-63.5547375 -64.125 C-63.55471232541706 -64.125, -63.55468715083411 -64.125, -63.5546375 -64.125 M-63.5546375 -64.125 C-63.5546375 -17.22716330660689, -63.5546375 29.67067338678622, -63.5546375 106.875 M-63.5546375 -64.125 C-63.5546375 -15.016404506797706, -63.5546375 34.09219098640459, -63.5546375 106.875 M-63.5546375 106.875 C-63.55467220178098 106.875, -63.55470690356196 106.875, -63.5547375 106.875 M-63.5546375 106.875 C-63.55466322000899 106.875, -63.55468894001798 106.875, -63.5547375 106.875 M-63.5547375 106.875 C-63.5547375 45.39064379876944, -63.5547375 -16.093712402461122, -63.5547375 -64.125 M-63.5547375 106.875 C-63.5547375 71.68498406286281, -63.5547375 36.49496812572562, -63.5547375 -64.125" stroke="#9370DB" stroke-width="1.3" fill="none" stroke-dasharray="0 0"/></g><g class="divider"><path d="M-17.2109875 -64.125 L-17.2108875 -64.125 L-17.2108875 106.875 L-17.2109875 106.875" stroke="none" stroke-width="0" fill="#ECECFF" fill-rule="evenodd"/><path d="M-17.2109875 -64.125 C-17.21095932023538 -64.125, -17.21093114047076 -64.125, -17.2108875 -64.125 M-17.2109875 -64.125 C-17.210962412913997 -64.125, -17.21093732582799 -64.125, -17.2108875 -64.125 M-17.2108875 -64.125 C-17.2108875 -1.5133011387809248, -17.2108875 61.09839772243815, -17.2108875 106.875 M-17.2108875 -64.125 C-17.2108875 -22.27940896585516, -17.2108875 19.566182068289677, -17.2108875 106.875 M-17.2108875 106.875 C-17.21092643239451 106.875, -17.21096536478902 106.875, -17.2109875 106.875 M-17.2108875 106.875 C-17.210920419042758 106.875, -17.21095333808552 106.875, -17.2109875 106.875 M-17.2109875 106.875 C-17.2109875 50.31801448818696, -17.2109875 -6.238971023626078, -17.2109875 -64.125 M-17.2109875 106.875 C-17.2109875 56.823824078196964, -17.2109875 6.772648156393927, -17.2109875 -64.125" stroke="#9370DB" stroke-width="1.3" fill="none" stroke-dasharray="0 0"/></g><g class="divider"><path d="M-215.8515625 -64.12505 L-215.8515625 -64.12495 L215.8515625 -64.12495 L215.8515625 -64.12505" stroke="none" stroke-width="0" fill="#ECECFF" fill-rule="evenodd"/><path d="M-215.8515625 -64.12505 C-215.8515625 -64.12502426116036, -215.8515625 -64.12499852232072, -215.8515625 -64.12495 M-215.8515625 -64.12505 C-215.8515625 -64.12501242085466, -215.8515625 -64.1249748417093, -215.8515625 -64.12495 M-215.8515625 -64.12495 C-89.93307244390057 -64.12495, 35.98541761219886 -64.12495, 215.8515625 -64.12495 M-215.8515625 -64.12495 C-126.92435592063943 -64.12495, -37.997149341278856 -64.12495, 215.8515625 -64.12495 M215.8515625 -64.12495 C215.8515625 -64.12497996080164, 215.8515625 -64.12500992160328, 215.8515625 -64.12505 M215.8515625 -64.12495 C215.8515625 -64.12498760067861, 215.8515625 -64.12502520135723, 215.8515625 -64.12505 M215.8515625 -64.12505 C103.6440189444601 -64.12505, -8.5635246110798 -64.12505, -215.8515625 -64.12505 M215.8515625 -64.12505 C105.72390413843641 -64.12505, -4.40375422312718 -64.12505, -215.8515625 -64.12505" stroke="#9370DB" stroke-width="1.3" fill="none" stroke-dasharray="0 0"/></g></g><g class="node default" id="my-svg-entity-USER-1" data-look="classic" transform="translate(223.8515625, 93.5)"><g class="outer-path" style=""><path d="M-196.1328125 -85.5 L196.1328125 -85.5 L196.1328125 85.5 L-196.1328125 85.5" stroke="none" stroke-width="0" fill="#ECECFF"/><path d="M-196.1328125 -85.5 C-59.28439867914045 -85.5, 77.5640151417191 -85.5, 196.1328125 -85.5 M-196.1328125 -85.5 C-66.59906576442731 -85.5, 62.93468097114538 -85.5, 196.1328125 -85.5 M196.1328125 -85.5 C196.1328125 -37.11550719492562, 196.1328125 11.26898561014876, 196.1328125 85.5 M196.1328125 -85.5 C196.1328125 -49.36584682911882, 196.1328125 -13.231693658237646, 196.1328125 85.5 M196.1328125 85.5 C94.7404867599323 85.5, -6.651838980135409 85.5, -196.1328125 85.5 M196.1328125 85.5 C85.54805766423682 85.5, -25.036697171526356 85.5, -196.1328125 85.5 M-196.1328125 85.5 C-196.1328125 28.31414488694191, -196.1328125 -28.87171022611618, -196.1328125 -85.5 M-196.1328125 85.5 C-196.1328125 44.76208948294123, -196.1328125 4.024178965882456, -196.1328125 -85.5" stroke="#9370DB" stroke-width="1.3" fill="none" stroke-dasharray="0 0"/></g><g style="" class="row-rect-odd"><path d="M-196.1328125 -42.75 L196.1328125 -42.75 L196.1328125 0 L-196.1328125 0" stroke="none" stroke-width="0" fill="hsl(240, 100%, 100%)"/><path d="M-196.1328125 -42.75 C-113.42345710453675 -42.75, -30.714101709073503 -42.75, 196.1328125 -42.75 M-196.1328125 -42.75 C-102.66987601206007 -42.75, -9.206939524120145 -42.75, 196.1328125 -42.75 M196.1328125 -42.75 C196.1328125 -32.43161200164815, 196.1328125 -22.113224003296292, 196.1328125 0 M196.1328125 -42.75 C196.1328125 -30.371740064268266, 196.1328125 -17.993480128536536, 196.1328125 0 M196.1328125 0 C93.64013433908558 0, -8.852543821828846 0, -196.1328125 0 M196.1328125 0 C62.078574462995846 0, -71.97566357400831 0, -196.1328125 0 M-196.1328125 0 C-196.1328125 -14.01244929956837, -196.1328125 -28.02489859913674, -196.1328125 -42.75 M-196.1328125 0 C-196.1328125 -10.446041662809817, -196.1328125 -20.892083325619634, -196.1328125 -42.75" stroke="#9370DB" stroke-width="1.3" fill="none" stroke-dasharray="0 0"/></g><g style="" class="row-rect-even"><path d="M-196.1328125 0 L196.1328125 0 L196.1328125 42.75 L-196.1328125 42.75" stroke="none" stroke-width="0" fill="hsl(240, 100%, 97.2745098039%)"/><path d="M-196.1328125 0 C-82.86303649677811 0, 30.406739506443785 0, 196.1328125 0 M-196.1328125 0 C-66.40542348933278 0, 63.32196552133445 0, 196.1328125 0 M196.1328125 0 C196.1328125 16.002766119133284, 196.1328125 32.00553223826657, 196.1328125 42.75 M196.1328125 0 C196.1328125 9.156784126046, 196.1328125 18.313568252092, 196.1328125 42.75 M196.1328125 42.75 C109.54476219535451 42.75, 22.956711890709016 42.75, -196.1328125 42.75 M196.1328125 42.75 C89.85673170652528 42.75, -16.41934908694944 42.75, -196.1328125 42.75 M-196.1328125 42.75 C-196.1328125 29.464938219076345, -196.1328125 16.179876438152686, -196.1328125 0 M-196.1328125 42.75 C-196.1328125 29.18099889874843, -196.1328125 15.611997797496862, -196.1328125 0" stroke="#9370DB" stroke-width="1.3" fill="none" stroke-dasharray="0 0"/></g><g style="" class="row-rect-odd"><path d="M-196.1328125 42.75 L196.1328125 42.75 L196.1328125 85.5 L-196.1328125 85.5" stroke="none" stroke-width="0" fill="hsl(240, 100%, 100%)"/><path d="M-196.1328125 42.75 C-68.68409731651164 42.75, 58.76461786697672 42.75, 196.1328125 42.75 M-196.1328125 42.75 C-81.52343614849113 42.75, 33.08594020301774 42.75, 196.1328125 42.75 M196.1328125 42.75 C196.1328125 52.079056321504716, 196.1328125 61.40811264300943, 196.1328125 85.5 M196.1328125 42.75 C196.1328125 58.842249962604534, 196.1328125 74.93449992520907, 196.1328125 85.5 M196.1328125 85.5 C117.64798705589702 85.5, 39.16316161179404 85.5, -196.1328125 85.5 M196.1328125 85.5 C46.33347626712069 85.5, -103.46585996575863 85.5, -196.1328125 85.5 M-196.1328125 85.5 C-196.1328125 76.75459472770326, -196.1328125 68.00918945540653, -196.1328125 42.75 M-196.1328125 85.5 C-196.1328125 74.62315948905102, -196.1328125 63.74631897810204, -196.1328125 42.75" stroke="#9370DB" stroke-width="1.3" fill="none" stroke-dasharray="0 0"/></g><g class="label name" transform="translate(-22.2265625, -76.125)" style=""><foreignObject width="44.453125" height="24"><div xmlns="http://www.w3.org/1999/xhtml" style="display: table-cell; white-space: nowrap; line-height: 1.5; max-width: 141px; text-align: start;"><span class="nodeLabel"><p>USER</p></span></div></foreignObject></g><g class="label attribute-type" transform="translate(-183.6328125, -33.375)" style=""><foreignObject width="49.8125" height="24"><div xmlns="http://www.w3.org/1999/xhtml" style="display: table-cell; white-space: nowrap; line-height: 1.5; max-width: 146px; text-align: start;"><span class="nodeLabel"><p>Integer</p></span></div></foreignObject></g><g class="label attribute-name" transform="translate(-108.8203125, -33.375)" style=""><foreignObject width="44.46875" height="24"><div xmlns="http://www.w3.org/1999/xhtml" style="display: table-cell; white-space: nowrap; line-height: 1.5; max-width: 140px; text-align: start;"><span class="nodeLabel"><p>userId</p></span></div></foreignObject></g><g class="label attribute-keys" transform="translate(-12.6640625, -33.375)" style=""><foreignObject width="21.34375" height="24"><div xmlns="http://www.w3.org/1999/xhtml" style="display: table-cell; white-space: nowrap; line-height: 1.5; max-width: 121px; text-align: start;"><span class="nodeLabel"><p>PK</p></span></div></foreignObject></g><g class="label attribute-comment" transform="translate(33.6796875, -33.375)" style=""><foreignObject width="148.171875" height="24"><div xmlns="http://www.w3.org/1999/xhtml" style="display: table-cell; white-space: nowrap; line-height: 1.5; max-width: 248px; text-align: start;"><span class="nodeLabel"><p>AUTO_INCREMENT</p></span></div></foreignObject></g><g class="label attribute-type" transform="translate(-183.6328125, 9.375)" style=""><foreignObject width="41.796875" height="24"><div xmlns="http://www.w3.org/1999/xhtml" style="display: table-cell; white-space: nowrap; line-height: 1.5; max-width: 139px; text-align: start;"><span class="nodeLabel"><p>String</p></span></div></foreignObject></g><g class="label attribute-name" transform="translate(-108.8203125, 9.375)" style=""><foreignObject width="71.15625" height="24"><div xmlns="http://www.w3.org/1999/xhtml" style="display: table-cell; white-space: nowrap; line-height: 1.5; max-width: 161px; text-align: start;"><span class="nodeLabel"><p>username</p></span></div></foreignObject></g><g class="label attribute-keys" transform="translate(-12.6640625, 9.375)" style=""><foreignObject width="0" height="0"><div xmlns="http://www.w3.org/1999/xhtml" style="display: table-cell; white-space: nowrap; line-height: 1.5; max-width: 100px; text-align: start;"><span class="nodeLabel"></span></div></foreignObject></g><g class="label attribute-comment" transform="translate(33.6796875, 9.375)" style=""><foreignObject width="149.953125" height="24"><div xmlns="http://www.w3.org/1999/xhtml" style="display: table-cell; white-space: nowrap; line-height: 1.5; max-width: 249px; text-align: start;"><span class="nodeLabel"><p>NOT NULL, UNIQUE</p></span></div></foreignObject></g><g class="label attribute-type" transform="translate(-183.6328125, 52.125)" style=""><foreignObject width="41.796875" height="24"><div xmlns="http://www.w3.org/1999/xhtml" style="display: table-cell; white-space: nowrap; line-height: 1.5; max-width: 139px; text-align: start;"><span class="nodeLabel"><p>String</p></span></div></foreignObject></g><g class="label attribute-name" transform="translate(-108.8203125, 52.125)" style=""><foreignObject width="68.484375" height="24"><div xmlns="http://www.w3.org/1999/xhtml" style="display: table-cell; white-space: nowrap; line-height: 1.5; max-width: 160px; text-align: start;"><span class="nodeLabel"><p>password</p></span></div></foreignObject></g><g class="label attribute-keys" transform="translate(-12.6640625, 52.125)" style=""><foreignObject width="0" height="0"><div xmlns="http://www.w3.org/1999/xhtml" style="display: table-cell; white-space: nowrap; line-height: 1.5; max-width: 100px; text-align: start;"><span class="nodeLabel"></span></div></foreignObject></g><g class="label attribute-comment" transform="translate(33.6796875, 52.125)" style=""><foreignObject width="78.84375" height="24"><div xmlns="http://www.w3.org/1999/xhtml" style="display: table-cell; white-space: nowrap; line-height: 1.5; max-width: 179px; text-align: start;"><span class="nodeLabel"><p>NOT NULL</p></span></div></foreignObject></g><g class="divider"><path d="M-196.1328125 -42.75005 L-196.1328125 -42.74995 L196.1328125 -42.74995 L196.1328125 -42.75005" stroke="none" stroke-width="0" fill="#ECECFF" fill-rule="evenodd"/><path d="M-196.1328125 -42.75005 C-196.1328125 -42.75002755883458, -196.1328125 -42.75000511766916, -196.1328125 -42.74995 M-196.1328125 -42.75005 C-196.1328125 -42.75001558378095, -196.1328125 -42.7499811675619, -196.1328125 -42.74995 M-196.1328125 -42.74995 C-95.10833105786604 -42.74995, 5.916150384267922 -42.74995, 196.1328125 -42.74995 M-196.1328125 -42.74995 C-45.173888873082745 -42.74995, 105.78503475383451 -42.74995, 196.1328125 -42.74995 M196.1328125 -42.74995 C196.1328125 -42.749979929786456, 196.1328125 -42.75000985957291, 196.1328125 -42.75005 M196.1328125 -42.74995 C196.1328125 -42.74997947761951, 196.1328125 -42.750008955239025, 196.1328125 -42.75005 M196.1328125 -42.75005 C54.037780196718785 -42.75005, -88.05725210656243 -42.75005, -196.1328125 -42.75005 M196.1328125 -42.75005 C94.12611500946643 -42.75005, -7.880582481067137 -42.75005, -196.1328125 -42.75005" stroke="#9370DB" stroke-width="1.3" fill="none" stroke-dasharray="0 0"/></g><g class="divider"><path d="M-121.3203625 -42.75 L-121.3202625 -42.75 L-121.3202625 85.5 L-121.3203625 85.5" stroke="none" stroke-width="0" fill="#ECECFF" fill-rule="evenodd"/><path d="M-121.3203625 -42.75 C-121.32032488326692 -42.75, -121.32028726653382 -42.75, -121.3202625 -42.75 M-121.3203625 -42.75 C-121.32033553094185 -42.75, -121.3203085618837 -42.75, -121.3202625 -42.75 M-121.3202625 -42.75 C-121.3202625 -2.3086587568161576, -121.3202625 38.132682486367685, -121.3202625 85.5 M-121.3202625 -42.75 C-121.3202625 -4.4032300477812925, -121.3202625 33.943539904437415, -121.3202625 85.5 M-121.3202625 85.5 C-121.32028482227602 85.5, -121.32030714455203 85.5, -121.3203625 85.5 M-121.3202625 85.5 C-121.32029416616392 85.5, -121.32032583232785 85.5, -121.3203625 85.5 M-121.3203625 85.5 C-121.3203625 58.785741220508044, -121.3203625 32.07148244101609, -121.3203625 -42.75 M-121.3203625 85.5 C-121.3203625 54.84887736271986, -121.3203625 24.19775472543973, -121.3203625 -42.75" stroke="#9370DB" stroke-width="1.3" fill="none" stroke-dasharray="0 0"/></g><g class="divider"><path d="M-25.1641125 -42.75 L-25.1640125 -42.75 L-25.1640125 85.5 L-25.1641125 85.5" stroke="none" stroke-width="0" fill="#ECECFF" fill-rule="evenodd"/><path d="M-25.1641125 -42.75 C-25.16407795733909 -42.75, -25.164043414678176 -42.75, -25.1640125 -42.75 M-25.1641125 -42.75 C-25.164087546291302 -42.75, -25.164062592582606 -42.75, -25.1640125 -42.75 M-25.1640125 -42.75 C-25.1640125 -6.326031697395088, -25.1640125 30.097936605209824, -25.1640125 85.5 M-25.1640125 -42.75 C-25.1640125 -10.630977179590232, -25.1640125 21.488045640819536, -25.1640125 85.5 M-25.1640125 85.5 C-25.16403335434774 85.5, -25.16405420869548 85.5, -25.1641125 85.5 M-25.1640125 85.5 C-25.164038819495264 85.5, -25.16406513899053 85.5, -25.1641125 85.5 M-25.1641125 85.5 C-25.1641125 48.42107817730749, -25.1641125 11.342156354614986, -25.1641125 -42.75 M-25.1641125 85.5 C-25.1641125 49.87497045024912, -25.1641125 14.249940900498245, -25.1641125 -42.75" stroke="#9370DB" stroke-width="1.3" fill="none" stroke-dasharray="0 0"/></g><g class="divider"><path d="M21.1796375 -42.75 L21.1797375 -42.75 L21.1797375 85.5 L21.1796375 85.5" stroke="none" stroke-width="0" fill="#ECECFF" fill-rule="evenodd"/><path d="M21.1796375 -42.75 C21.1796749298198 -42.75, 21.179712359639602 -42.75, 21.1797375 -42.75 M21.1796375 -42.75 C21.179675280064814 -42.75, 21.17971306012963 -42.75, 21.1797375 -42.75 M21.1797375 -42.75 C21.1797375 -4.189061038516996, 21.1797375 34.37187792296601, 21.1797375 85.5 M21.1797375 -42.75 C21.1797375 5.464730580231375, 21.1797375 53.67946116046275, 21.1797375 85.5 M21.1797375 85.5 C21.17970816831705 85.5, 21.1796788366341 85.5, 21.1796375 85.5 M21.1797375 85.5 C21.179717418951434 85.5, 21.179697337902866 85.5, 21.1796375 85.5 M21.1796375 85.5 C21.1796375 55.36160514211548, 21.1796375 25.22321028423095, 21.1796375 -42.75 M21.1796375 85.5 C21.1796375 36.91762822086832, 21.1796375 -11.664743558263353, 21.1796375 -42.75" stroke="#9370DB" stroke-width="1.3" fill="none" stroke-dasharray="0 0"/></g><g class="divider"><path d="M-196.1328125 -42.75005 L-196.1328125 -42.74995 L196.1328125 -42.74995 L196.1328125 -42.75005" stroke="none" stroke-width="0" fill="#ECECFF" fill-rule="evenodd"/><path d="M-196.1328125 -42.75005 C-196.1328125 -42.750026221302555, -196.1328125 -42.75000244260511, -196.1328125 -42.74995 M-196.1328125 -42.75005 C-196.1328125 -42.7500158285673, -196.1328125 -42.74998165713459, -196.1328125 -42.74995 M-196.1328125 -42.74995 C-104.3908130304261 -42.74995, -12.648813560852204 -42.74995, 196.1328125 -42.74995 M-196.1328125 -42.74995 C-106.92578885717403 -42.74995, -17.718765214348053 -42.74995, 196.1328125 -42.74995 M196.1328125 -42.74995 C196.1328125 -42.749981714859295, 196.1328125 -42.7500134297186, 196.1328125 -42.75005 M196.1328125 -42.74995 C196.1328125 -42.74997365592799, 196.1328125 -42.74999731185598, 196.1328125 -42.75005 M196.1328125 -42.75005 C44.15223629605774 -42.75005, -107.82833990788453 -42.75005, -196.1328125 -42.75005 M196.1328125 -42.75005 C68.03936767169841 -42.75005, -60.05407715660317 -42.75005, -196.1328125 -42.75005" stroke="#9370DB" stroke-width="1.3" fill="none" stroke-dasharray="0 0"/></g></g></g></g></g><defs><filter id="my-svg-drop-shadow" height="130%" width="130%"><feDropShadow dx="4" dy="4" stdDeviation="0" flood-opacity="0.06" flood-color="#000000"/></filter></defs><defs><filter id="my-svg-drop-shadow-small" height="150%" width="150%"><feDropShadow dx="2" dy="2" stdDeviation="0" flood-opacity="0.06" flood-color="#000000"/></filter></defs></svg>